<?xml version="1.0" encoding="UTF-8" standalone="no"?>
<!-- Created with Inkscape (http://www.inkscape.org/) -->

<svg
   width="512"
   height="512"
   viewBox="0 0 512 512"
   version="1.1"
   id="svg1"
   xml:space="preserve"
   sodipodi:docname="HAMMER.svg"
   inkscape:version="1.3.2 (091e20ef0f, 2023-11-25, custom)"
   xmlns:inkscape="http://www.inkscape.org/namespaces/inkscape"
   xmlns:sodipodi="http://sodipodi.sourceforge.net/DTD/sodipodi-0.dtd"
   xmlns="http://www.w3.org/2000/svg"
   xmlns:svg="http://www.w3.org/2000/svg"><sodipodi:namedview
     id="namedview1"
     pagecolor="#505050"
     bordercolor="#eeeeee"
     borderopacity="1"
     inkscape:showpageshadow="0"
     inkscape:pageopacity="0"
     inkscape:pagecheckerboard="0"
     inkscape:deskcolor="#505050"
     inkscape:document-units="px"
     inkscape:zoom="1.7304687"
     inkscape:cx="264.95711"
     inkscape:cy="271.60271"
     inkscape:window-width="1900"
     inkscape:window-height="1025"
     inkscape:window-x="10"
     inkscape:window-y="45"
     inkscape:window-maximized="0"
     inkscape:current-layer="layer3" /><defs
     id="defs1" /><g
     inkscape:groupmode="layer"
     id="layer3"
     inkscape:label="HAMMER"
     style="display:inline"><path
       style="display:inline;fill:#15b1c7;fill-opacity:1;stroke:none;stroke-width:11.0453;stroke-linecap:round;stroke-linejoin:round;stroke-dasharray:none;stroke-opacity:1;paint-order:fill markers stroke"
       d="M 481.83264,494.47509 509.06016,461.57534 342.77814,282.30978 408.67387,205.5143 c 0,0 1.724,1.55188 0.0554,-37.30584 C 407.06059,129.35074 380.73867,69.221175 348.93987,39.269871 317.14108,9.3185678 307.56399,15.585772 307.56399,15.585772 L 226.21906,5.8178203 144.10722,77.174432 36.0276,185.26099 9.0514406,211.5029 l 1.5055544,49.23792 23.23759,48.56696 39.033273,50.13918 47.659762,33.15447 55.35127,20.74282 36.71716,-3.89852 21.82571,-19.28015 57.7093,-51.147 147.59323,155.52114 z"
       id="path24"
       inkscape:label="color"
       sodipodi:nodetypes="cccczzccccccccccccccc" /><g
       id="g23"
       inkscape:label="lineart"
       transform="matrix(2.2090476,0,0,2.2090476,-618.40688,-3.0197822)"><path
         style="fill:none;fill-opacity:1;stroke:#090502;stroke-width:5;stroke-linecap:round;stroke-linejoin:round;stroke-dasharray:none;stroke-opacity:1;paint-order:fill markers stroke"
         d="m 508.99176,210.59717 -71.65307,-80.40602 -16.11781,16.10502 76.44582,78.25473 z"
         id="path20" /><path
         style="fill:none;fill-opacity:1;stroke:#090502;stroke-width:5;stroke-linecap:round;stroke-linejoin:round;stroke-dasharray:none;stroke-opacity:1;paint-order:fill markers stroke"
         d="m 497.64086,224.96059 -19.06674,0.35215 -66.98641,-69.27086 9.74248,-9.16421 z"
         id="path21" /><path
         style="fill:none;fill-opacity:1;stroke:#090502;stroke-width:5;stroke-linecap:round;stroke-linejoin:round;stroke-dasharray:none;stroke-opacity:1;paint-order:fill markers stroke"
         d="m 375.52807,186.01736 c 5.38296,-4.53055 4.76268,-8.13786 6.19192,-12.43459 13.04096,-39.20502 -74.06124,-107.978936 -95.99954,-80.574335 -4.63579,5.790872 -2.65919,16.985175 -1.58423,23.821615 1.95174,12.41262 12.94837,30.93198 20.78908,40.96614 14.50127,18.55801 46.95781,34.74894 70.60277,28.22117 z"
         id="path22"
         sodipodi:nodetypes="cssssc" /><path
         style="fill:none;fill-opacity:1;stroke:#090502;stroke-width:5;stroke-linecap:round;stroke-linejoin:round;stroke-dasharray:none;stroke-opacity:1;paint-order:fill markers stroke"
         d="m 376.67833,185.68657 c 32.45613,-26.92155 87.41136,-91.790504 87.41136,-91.790504 0,0 6.68897,-50.04421 -27.40372,-76.178604 -33.4941,-20.9416125 -60.21918,-11.5646 -60.21918,-11.5646 l -87.23622,83.678744"
         id="path23"
         sodipodi:nodetypes="ccccc" /></g></g></svg>
