<?xml version="1.0" encoding="UTF-8" standalone="no"?>
<!-- Created with Inkscape (http://www.inkscape.org/) -->

<svg
   width="512"
   height="512"
   viewBox="0 0 512 512"
   version="1.1"
   id="svg1"
   xml:space="preserve"
   inkscape:version="1.3.2 (091e20ef0f, 2023-11-25, custom)"
   sodipodi:docname="HOLE.svg"
   xmlns:inkscape="http://www.inkscape.org/namespaces/inkscape"
   xmlns:sodipodi="http://sodipodi.sourceforge.net/DTD/sodipodi-0.dtd"
   xmlns="http://www.w3.org/2000/svg"
   xmlns:svg="http://www.w3.org/2000/svg"><sodipodi:namedview
     id="namedview1"
     pagecolor="#505050"
     bordercolor="#eeeeee"
     borderopacity="1"
     inkscape:showpageshadow="0"
     inkscape:pageopacity="0"
     inkscape:pagecheckerboard="0"
     inkscape:deskcolor="#505050"
     inkscape:document-units="px"
     inkscape:zoom="0.86523437"
     inkscape:cx="179.72009"
     inkscape:cy="338.63657"
     inkscape:window-width="950"
     inkscape:window-height="1025"
     inkscape:window-x="10"
     inkscape:window-y="45"
     inkscape:window-maximized="0"
     inkscape:current-layer="svg1" /><defs
     id="defs1" /><g
     inkscape:groupmode="layer"
     id="layer4"
     inkscape:label="HOLE"
     style="display:inline"><g
       id="g19"
       inkscape:label="color"><path
         style="fill:#a05a2c;fill-opacity:1;stroke:none;stroke-width:15.022;stroke-linecap:round;stroke-linejoin:round;stroke-dasharray:none;stroke-opacity:1;paint-order:fill markers stroke"
         d="m 494.57639,355.79204 -103.74533,-32.61746 -115.25393,-13.80094 -129.20066,4.24757 -74.834074,16.54687 -57.660399,37.12052 14.734107,35.16033 61.214871,21.28681 134.949275,21.59566 109.13498,-3.12899 84.32089,-15.58461 55.57784,-29.37953 24.98031,-27.39725 5.24078,-12.9728 z"
         id="path18" /><path
         style="fill:#784421;fill-opacity:1;stroke:none;stroke-width:15.022;stroke-linecap:round;stroke-linejoin:round;stroke-dasharray:none;stroke-opacity:1;paint-order:fill markers stroke"
         d="m 505.5343,354.23324 -6.71987,-18.44154 -36.38136,-19.10249 -77.38482,-18.9278 -108.45055,-13.59827 -121.53777,5.1168 -66.786795,14.82128 -58.073564,15.37426 -13.531716,25.13683 -0.291727,16.49743 13.759329,-5.74504 33.234706,-22.19683 54.298657,-16.25695 68.45676,-10.76629 77.73194,-0.41168 101.89202,8.02221 79.31723,18.8779 z"
         id="path19" /></g><g
       id="g17"
       inkscape:label="lineart"
       transform="matrix(3.0043976,0,0,3.0043976,-572.92767,-624.54144)"><path
         style="fill:none;fill-opacity:1;stroke:#000000;stroke-width:5;stroke-linecap:round;stroke-linejoin:round;stroke-dasharray:none;stroke-opacity:1;paint-order:fill markers stroke"
         d="m 220.49141,307.98152 c -27.16695,3.41079 -35.17986,25.54188 -13.49224,36.33248 23.15662,11.52149 89.22969,16.76823 122.69045,5.70197 7.68555,-2.54179 31.71569,-16.28767 27.68256,-26.31537 -3.61864,-8.99714 -17.01496,-10.52465 -24.64112,-13.43027 -48.16133,-9.55358 -60.98992,-10.11634 -112.23965,-2.28881 z"
         id="path16"
         sodipodi:nodetypes="cssscc" /><path
         style="fill:none;fill-opacity:1;stroke:#000000;stroke-width:5;stroke-linecap:round;stroke-linejoin:round;stroke-dasharray:none;stroke-opacity:1;paint-order:fill markers stroke"
         d="m 196.50577,329.46768 c 27.94919,-31.2055 138.65991,-19.15298 159.59288,-1.46503"
         id="path17"
         sodipodi:nodetypes="cc" /></g></g></svg>
