<?xml version="1.0" encoding="UTF-8" standalone="no"?>
<!-- Created with Inkscape (http://www.inkscape.org/) -->

<svg
   width="512"
   height="512"
   viewBox="0 0 512 512"
   version="1.1"
   id="svg1"
   xml:space="preserve"
   sodipodi:docname="MOLE.svg"
   inkscape:version="1.3.2 (091e20ef0f, 2023-11-25, custom)"
   xmlns:inkscape="http://www.inkscape.org/namespaces/inkscape"
   xmlns:sodipodi="http://sodipodi.sourceforge.net/DTD/sodipodi-0.dtd"
   xmlns="http://www.w3.org/2000/svg"
   xmlns:svg="http://www.w3.org/2000/svg"><sodipodi:namedview
     id="namedview1"
     pagecolor="#505050"
     bordercolor="#eeeeee"
     borderopacity="1"
     inkscape:showpageshadow="0"
     inkscape:pageopacity="0"
     inkscape:pagecheckerboard="0"
     inkscape:deskcolor="#505050"
     inkscape:document-units="px"
     inkscape:zoom="1.7304687"
     inkscape:cx="254.26637"
     inkscape:cy="280.27088"
     inkscape:window-width="1900"
     inkscape:window-height="1025"
     inkscape:window-x="10"
     inkscape:window-y="45"
     inkscape:window-maximized="0"
     inkscape:current-layer="layer2" /><defs
     id="defs1" /><g
     inkscape:groupmode="layer"
     id="layer2"
     inkscape:label="MOLE"
     style="display:inline"><g
       id="g10"
       inkscape:label="color"
       style="display:inline"
       transform="matrix(3.0043976,0,0,3.0043976,-580.22624,-557.20562)"><path
         style="display:inline;fill:#f7b04f;fill-opacity:1;stroke:none;stroke-width:5;stroke-linecap:round;stroke-linejoin:round;stroke-dasharray:none;stroke-opacity:1;paint-order:fill markers stroke"
         d="m 330.08395,325.50721 c 0.0394,-17.29901 2.53121,-34.74809 -2.40195,-51.19474 4.05768,-4.48212 0.18168,-32.00988 -2.01758,-36.1888 -2.67935,-5.09116 5.77088,-6.69649 5.77088,-13.52428 2.08237,-10.79945 -10.56448,-21.7272 -21.4255,-19.44168 -4.24878,0.89408 -5.56242,5.30266 -10.64542,4.3111 -8.93348,-1.74269 -17.89216,-6.24035 -27.3188,-4.73302 -7.32856,1.17184 -14.37355,4.80996 -21.49437,6.23412 -1.84906,0.36982 -2.77802,-1.40896 -4.40387,-1.63717 -8.12508,-1.14045 -16.51981,-0.44724 -21.2489,7.16592 -4.66325,7.50719 -0.0215,13.08203 1.17969,20.28939 2.77238,1.08186 -0.58676,24.57314 -2.18354,31.39419 -1.49017,5.70407 -3.04421,53.75286 -1.31572,55.27198 15.55,13.66638 86.64901,10.52519 107.50508,2.05299 z"
         id="path11"
         sodipodi:nodetypes="ccscsssscccccc" /><path
         style="fill:#efefe1;fill-opacity:1;stroke:none;stroke-width:5;stroke-linecap:round;stroke-linejoin:round;stroke-dasharray:none;stroke-opacity:1;paint-order:fill markers stroke"
         d="m 312.9299,331.24903 c 0.61849,-8.00634 -0.61369,-16.14376 -1.92852,-24.0327 -1.59166,-9.54998 -3.84054,-22.99516 -13.18947,-28.76371 -13.62684,-8.40813 -36.98936,-1.94722 -46.63291,9.90157 -3.59155,4.41284 -10.47776,37.47754 -6.03644,41.76221 1.31077,1.26454 33.5664,3.34788 36.75093,2.76161 10.19079,-1.87611 20.8929,0.16585 31.03641,-1.62898 z"
         id="path10" /><path
         style="fill:#be1515;fill-opacity:1;stroke:none;stroke-width:5;stroke-linecap:round;stroke-linejoin:round;stroke-dasharray:none;stroke-opacity:1;paint-order:fill markers stroke"
         d="m 277.29534,246.3628 c 1.07461,-0.36368 2.08666,-0.8779 3.11455,-1.39767 12.16381,-6.15087 -7.99874,-13.26547 -9.24763,-4.12036 -0.29637,2.17018 4.96252,3.71708 6.13308,5.51803 z"
         id="path12" /><path
         style="fill:#f7b862;fill-opacity:1;stroke:none;stroke-width:5;stroke-linecap:round;stroke-linejoin:round;stroke-dasharray:none;stroke-opacity:1;paint-order:fill markers stroke"
         d="m 268.77844,243.46039 c -2.51932,3.04115 -7.25004,5.37081 -8.59208,9.35373 -1.47376,4.37384 -0.089,10.15806 5.66149,9.29238 5.08384,-0.76534 6.9519,-7.68144 12.39893,-7.18626 2.10199,0.19109 2.8934,2.31523 4.29659,3.575 3.77346,3.38777 10.2551,3.88476 13.07136,-0.68293 1.4781,-2.39734 -1.95707,-10.10035 -3.95006,-12.02267 -1.4635,-1.4116 -4.10959,-2.40968 -6.13153,-2.66159 -2.67747,-0.33359 -5.41553,3.53644 -8.4592,3.53644 -3.49231,0 -6.3835,-3.30776 -8.9386,-3.17465 -0.2143,0.0112 0.4288,-0.0183 0.6431,-0.0294 z"
         id="path13" /><path
         style="fill:#e04d4d;fill-opacity:1;stroke:none;stroke-width:5;stroke-linecap:round;stroke-linejoin:round;stroke-dasharray:none;stroke-opacity:1;paint-order:fill markers stroke"
         d="m 302.57259,233.68276 c 8.97974,2.83954 -1.38722,10.34464 -2.8364,4.20351 -0.89543,-3.79449 3.63692,-3.08121 2.8364,-4.20351 z"
         id="path14" /><path
         style="fill:#501616;fill-opacity:1;stroke:none;stroke-width:5;stroke-linecap:round;stroke-linejoin:round;stroke-dasharray:none;stroke-opacity:1;paint-order:fill markers stroke"
         d="m 249.44807,232.15765 c 8.03695,0.27615 3.0045,9.36438 -2.52172,7.52231 -3.32564,-1.10855 0.46732,-6.90214 2.52172,-7.52231 z"
         id="path15" /></g><g
       id="g9"
       inkscape:label="lineart"
       transform="matrix(3.0043976,0,0,3.0043976,-580.22624,-557.20562)"><path
         style="fill:none;stroke:#000000;stroke-width:5;stroke-linecap:round;stroke-linejoin:round;stroke-dasharray:none;stroke-opacity:1;paint-order:fill markers stroke"
         d="m 222.85571,324.22167 c 28.40441,11.94819 96.22077,9.63383 106.68155,1.62782"
         id="path1"
         sodipodi:nodetypes="cc" /><path
         style="fill:#a02c2c;fill-opacity:1;stroke:#000000;stroke-width:5;stroke-linecap:round;stroke-linejoin:round;stroke-dasharray:none;stroke-opacity:1;paint-order:fill markers stroke"
         d="m 284.22463,240.76129 c -0.81851,3.40143 -4.95444,5.4036 -7.25957,5.53697 -0.88279,0.0511 -5.60017,-1.57862 -6.46678,-4.63504 -0.99169,-3.49755 3.50541,-5.0393 7.15997,-4.82671 3.36161,0.19554 5.19691,1.56299 6.56638,3.92478 z"
         id="path5"
         sodipodi:nodetypes="csssc" /><path
         style="fill:#782121;fill-opacity:1;stroke:#000000;stroke-width:5;stroke-linecap:round;stroke-linejoin:round;stroke-dasharray:none;stroke-opacity:1;paint-order:fill markers stroke"
         d="m 302.34549,232.21159 c 0.84974,0.18773 1.81741,0.61174 2.55663,1.11826 7.77537,5.32785 -6.195,10.15343 -6.195,3.49422 0,-2.47213 2.41913,-4.15766 3.63837,-4.61248 z"
         id="path6"
         sodipodi:nodetypes="ccsc" /><path
         style="fill:#782121;fill-opacity:1;stroke:#000000;stroke-width:5;stroke-linecap:round;stroke-linejoin:round;stroke-dasharray:none;stroke-opacity:1;paint-order:fill markers stroke"
         d="m 248.92609,231.47967 c 0.84974,0.18773 1.81741,0.61174 2.55663,1.11826 7.77537,5.32785 -6.195,10.15343 -6.195,3.49422 0,-2.47213 2.00224,-3.93237 3.63837,-4.61248 z"
         id="path6-2"
         sodipodi:nodetypes="ccsc" /><path
         style="fill:none;fill-opacity:1;stroke:#000000;stroke-width:5;stroke-linecap:round;stroke-linejoin:round;stroke-dasharray:none;stroke-opacity:1;paint-order:fill markers stroke"
         d="m 326.17805,234.73363 c 18.41572,-12.47962 -7.64538,-40.59874 -22.88297,-25.2669"
         id="path7" /><path
         style="fill:none;fill-opacity:1;stroke:#000000;stroke-width:5;stroke-linecap:round;stroke-linejoin:round;stroke-dasharray:none;stroke-opacity:1;paint-order:fill markers stroke"
         d="m 250.46952,209.99611 c -22.2467,-8.86439 -34.47965,8.14533 -22.90765,26.55308"
         id="path8"
         sodipodi:nodetypes="cc" /><path
         style="fill:none;fill-opacity:1;stroke:#000000;stroke-width:5;stroke-linecap:round;stroke-linejoin:round;stroke-dasharray:none;stroke-opacity:1;paint-order:fill markers stroke"
         d="m 329.35845,326.12761 c 1.38448,-10.18833 1.14525,-20.36376 0.26843,-30.51788 -1.41253,-16.35809 2.87465,-50.93742 -6.19229,-64.49617 -16.9298,-25.31689 -50.54726,-32.5728 -75.75944,-15.71891 -4.77534,3.19223 -10.19419,6.55029 -13.24734,11.70354 -12.68409,21.40874 -11.56914,72.37432 -11.56914,97.50307"
         id="path2"
         sodipodi:nodetypes="cssscc" /><path
         style="fill:none;fill-opacity:1;stroke:#000000;stroke-width:5;stroke-linecap:round;stroke-linejoin:round;stroke-dasharray:none;stroke-opacity:1;paint-order:fill markers stroke"
         d="m 312.36125,329.94234 c 0.76491,-16.00063 -0.51885,-39.52259 -14.10624,-50.30307 -14.19501,-11.26257 -42.52299,-0.81835 -50.3505,13.29671 -5.74577,10.36114 -3.2677,24.41705 -3.2677,36.1342"
         id="path3"
         sodipodi:nodetypes="cssc" /><path
         style="fill:none;fill-opacity:1;stroke:#000000;stroke-width:5;stroke-linecap:round;stroke-linejoin:round;stroke-dasharray:none;stroke-opacity:1;paint-order:fill markers stroke"
         d="m 279.39125,254.97467 c 11.30209,16.96584 26.93607,-0.26867 5.26788,-13.24581"
         id="path4" /><path
         style="fill:none;fill-opacity:1;stroke:#000000;stroke-width:5;stroke-linecap:round;stroke-linejoin:round;stroke-dasharray:none;stroke-opacity:1;paint-order:fill markers stroke"
         d="m 275.49268,254.97326 c -11.30209,16.96584 -26.93607,-0.26867 -5.26788,-13.24581"
         id="path4-6" /><path
         style="fill:none;fill-opacity:1;stroke:#000000;stroke-width:5;stroke-linecap:round;stroke-linejoin:round;stroke-dasharray:none;stroke-opacity:1;paint-order:fill markers stroke"
         d="m 275.63291,255.03646 c 1.52234,0.16838 2.14499,0.09 3.64832,-0.0781"
         id="path9"
         sodipodi:nodetypes="cc" /></g></g></svg>
